<svg id="Layer_1" data-name="Layer 1" xmlns="http://www.w3.org/2000/svg" viewBox="0 0 445.53 573.2"><defs><style>.cls-1{fill:#510c76;}.cls-2{fill:#85754e;}.cls-3{fill:#fff;}.cls-4,.cls-5{fill:#8a8e8f;}.cls-5{font-size:45.7px;font-family:MyriadPro-Regular, Myriad Pro;letter-spacing:-0.01em;}.cls-6{letter-spacing:0em;}</style></defs><path class="cls-1" d="M121.87,349.78a3,3,0,0,0-.69-1.8,3.24,3.24,0,0,0-2.33-.49c-7.22-.37-14-2-19.77-6.8a26.43,26.43,0,0,1-9.72-17.49,27.1,27.1,0,0,1,5.4-20.81,27.94,27.94,0,0,1,17.16-10.51c3.81-.76,7.73-1,11.56-1.62,13.52-2.3,22.8-12.06,24.77-25.77,1.38-9.53-1.27-18.09-5.64-26.32-3.55-6.68-7.3-13.27-10.57-20.08a46.35,46.35,0,0,1-4.74-19.52,30,30,0,0,1,5.29-18.07c7.21-10.29,16.9-16.82,29.14-19,9.49-1.69,18.46.61,26.45,5.91,5.61,3.73,10.76,8.18,16.2,12.19a135.4,135.4,0,0,0,12.42,8.6c8.28,4.81,16.74,4.08,25.19.07,8-3.84,13.5-9.76,14.42-18.9a139.21,139.21,0,0,0,.27-17.34c-.13-5.28-.23-10.54,1.58-15.59a24,24,0,0,1,14.57-14.94c8.17-3.1,16.39-3.11,24.37.68s12,10.36,13.74,18.77c.47,2.34.8,4.71,1.34,7a1.83,1.83,0,0,0,1.25,1.15A200.14,200.14,0,0,1,352.4,159.2a177.62,177.62,0,0,1,28.46,13.67A16,16,0,0,0,383,174a3.19,3.19,0,0,0,3.57-.54,58.91,58.91,0,0,1,29.56-13.61c23.71-3.49,43.23,4.31,58.78,22.63a57.58,57.58,0,0,1,13,29.41c2.68,18.22-1.58,34.75-12.87,49.31a61.87,61.87,0,0,1-15.61,14.1,2,2,0,0,0-1,2.42c1.2,6,2.51,12.05,3.49,18.12.69,4.24,1,8.56,1.31,12.86a127.86,127.86,0,0,1,.57,14.23c-.33,7.62-.81,15.28-1.8,22.84q-1.11,8.31-3,16.35c-2.62,11.22-32,134.12-166.87,134.12-79.56,0-146.64-56.53-167.22-134.12C123.25,355.55,123.23,354.43,121.87,349.78Z" transform="translate(-43.2 -11.55)"/><path class="cls-1" d="M131,258a21.37,21.37,0,0,1-21.44,21.8,21.87,21.87,0,1,1,.62-43.74A21.27,21.27,0,0,1,131,258Z" transform="translate(-43.2 -11.55)"/><path class="cls-1" d="M255,87.11c-.19-9.94,7.16-17.85,17.69-17.54,9.59.28,17.1,7.23,17.06,17.62,0,10-7.23,17.4-17.52,17.48C261.6,104.76,254.8,96.53,255,87.11Z" transform="translate(-43.2 -11.55)"/><path class="cls-1" d="M140.06,146.11c.21,8.53-8.22,16.95-17.26,16.82-7.89-.12-16.37-9.51-16.17-17.36s7.62-16.43,17.49-16.13C133.12,129.72,140.42,138.21,140.06,146.11Z" transform="translate(-43.2 -11.55)"/><path class="cls-1" d="M43.21,225.52a15.29,15.29,0,0,1,15.51-16.05c8.78,0,15.11,6.42,15.64,14.86C75,235,67,241.16,59,241.28,49.89,241.41,43,234.49,43.21,225.52Z" transform="translate(-43.2 -11.55)"/><path class="cls-1" d="M213.8,162.71c-.18-6.87,5.82-14.66,14.49-14.67,8.41,0,14.65,7.31,14.23,15.58a14.19,14.19,0,0,1-14.87,13.63C220.19,177,213.49,170.16,213.8,162.71Z" transform="translate(-43.2 -11.55)"/><path class="cls-1" d="M91.23,110.55A13.6,13.6,0,1,1,104.64,97,13.3,13.3,0,0,1,91.23,110.55Z" transform="translate(-43.2 -11.55)"/><path class="cls-1" d="M122.17,34.3c-6,.31-11.4-5.34-11.17-11.57a11.27,11.27,0,1,1,22.53.62C133.37,29.27,128.18,34.65,122.17,34.3Z" transform="translate(-43.2 -11.55)"/><path class="cls-1" d="M190.54,126.87a11.37,11.37,0,1,1-11.26,11.37A11,11,0,0,1,190.54,126.87Z" transform="translate(-43.2 -11.55)"/><path class="cls-1" d="M219.59,76.16a11.27,11.27,0,1,1,22.54-.09,11.27,11.27,0,1,1-22.54.09Z" transform="translate(-43.2 -11.55)"/><path class="cls-1" d="M67.92,167.26A11.37,11.37,0,1,1,79.24,156,11,11,0,0,1,67.92,167.26Z" transform="translate(-43.2 -11.55)"/><path class="cls-1" d="M155.47,96.7a11.39,11.39,0,0,1,.09,22.78c-6.42,0-11.16-4.82-11.33-11.36A11.29,11.29,0,0,1,155.47,96.7Z" transform="translate(-43.2 -11.55)"/><path class="cls-1" d="M214.35,42.58a11.26,11.26,0,1,1,22.52-.09,11.26,11.26,0,1,1-22.52.09Z" transform="translate(-43.2 -11.55)"/><path class="cls-1" d="M184.69,43.74a11.05,11.05,0,0,1-11.3-11.34,11.29,11.29,0,1,1,22.57,0A11.06,11.06,0,0,1,184.69,43.74Z" transform="translate(-43.2 -11.55)"/><path class="cls-1" d="M101.27,186.8c5.82-.25,11.44,5.16,11.23,11.71a11.42,11.42,0,0,1-11.31,11A11.29,11.29,0,0,1,90,198.11C89.87,192.13,95.2,186.51,101.27,186.8Z" transform="translate(-43.2 -11.55)"/><path class="cls-1" d="M214.47,121.42c-6-.29-9.87-3.25-10.17-10.29-.27-6.16,4-10.91,9.68-11.1,6-.2,11.48,4.75,11.11,10.5C224.67,117,222,121,214.47,121.42Z" transform="translate(-43.2 -11.55)"/><path class="cls-1" d="M197.72,73.45a10.33,10.33,0,0,1-10.38,10.46c-5.75.11-10.66-5.13-10.37-11a10.38,10.38,0,0,1,20.75.52Z" transform="translate(-43.2 -11.55)"/><path class="cls-1" d="M143,69.76a9,9,0,0,1-9.22-9.24,9.17,9.17,0,0,1,9.21-9.28,9.48,9.48,0,0,1,9.21,8.8C152.42,65.18,148.05,70,143,69.76Z" transform="translate(-43.2 -11.55)"/><path class="cls-2" d="M406.64,192.34c-4.76,1.31-7.85,3.4-11.13,5.62a47.77,47.77,0,0,0-11.25,10.2l17.25,8.26s4-3.93,5.23-5.09a24.44,24.44,0,0,1,8.17-5,23.48,23.48,0,0,1,7.15-1.33,23.84,23.84,0,0,1,8.48,1.33,16.24,16.24,0,0,1,6.89,4.16,25,25,0,0,1,4.91,7.25c2.29,5.72-1.89,7.07-1.89,7.07a7.55,7.55,0,0,0,2.8-1.53c1.51-1.48,2.3-4.77,2-7.41-1.07-8.61-10.66-15.9-11.63-16.79a32.84,32.84,0,0,0-12.75-7A26.45,26.45,0,0,0,406.64,192.34Z" transform="translate(-43.2 -11.55)"/><path class="cls-2" d="M331.53,239.52s3.52,11.44,7.37,13.72c6.19,3.65,10.88-2.5,13.85-5.69,4.48-4.8,14.74-18.16,14.84-18.31s17.49,7.11,17.49,7.11-12.19,13.38-18.44,19.37a48.45,48.45,0,0,1-7.42,6.33c-3.14,2-4.55,2.66-7,3-9.49,1.44-14-6.55-16.07-10.55A51.74,51.74,0,0,1,331.53,239.52Z" transform="translate(-43.2 -11.55)"/><path class="cls-3" d="M196.52,242.36c0-13.62,10.26-24.1,23.72-24,12.62.1,23.32,10.89,23,24.47-.26,12.77-10.55,23.41-23.47,23.3A23.34,23.34,0,0,1,196.52,242.36Z" transform="translate(-43.2 -11.55)"/><path class="cls-3" d="M239,372a92.49,92.49,0,0,0,4.24,9.84v12.72a23.37,23.37,0,0,1-46.74,0V297.73a23.37,23.37,0,0,1,46.74,0v12c-.73,1.28-1.44,2.59-2.1,3.94Q227.68,340.75,239,372Z" transform="translate(-43.2 -11.55)"/><path class="cls-3" d="M387,318.56q-11.1-30.51-38.29-42.32h0a17.47,17.47,0,0,1-5.22,1.21c-6.69.48-11.39-2.23-16.13-6.77q-18-1.79-38.06,5.51Q257.21,287.85,244,314.34t-2.09,57q11.12,30.51,38.46,42.08t58.85.1q32.26-11.76,45.54-38.16T387,318.56ZM282.13,401.83a1.22,1.22,0,0,1-1.07.65,1.25,1.25,0,0,1-.56-.14c-13.48-7-23.25-18.6-29-34.48s-5.83-31.26,0-45.4a1.2,1.2,0,0,1,2.21.92c-5.55,13.57-5.51,28.25.09,43.66s14.94,26.45,27.88,33.18A1.2,1.2,0,0,1,282.13,401.83Zm55.11,5.68a19.44,19.44,0,0,1-24.84-11.58l-32.39-89a19.38,19.38,0,1,1,36.42-13.25l32.4,89A19.45,19.45,0,0,1,337.24,407.51Zm40.24-40.42a1.2,1.2,0,0,1-1.11.74,1.11,1.11,0,0,1-.46-.09,1.2,1.2,0,0,1-.66-1.56c5.54-13.48,5.53-28.06,0-43.36s-15-26.59-27.89-33.4a1.21,1.21,0,0,1,1.11-2.14c13.47,7.12,23.24,18.79,29,34.73S383.24,353,377.48,367.09Z" transform="translate(-43.2 -11.55)"/><path class="cls-3" d="M456.56,230.8c-2.22,8.91-10.26,13.26-12.64,14.14-10.76,3.95-17,2.51-33.3-2.25,0,0-28.93-9.38-51.88-20a75.83,75.83,0,0,0-12.66-4.91c-11.06-3.36-13.74-1.89-14.71-1.22-2.72,1.91-3.32,5.44-3.67,10.22s1.36,23.83,9,34.31a19.13,19.13,0,0,0,7.75,6.39,13.33,13.33,0,0,0,8.26.42c2.78-.77,7.75-4.39,8.13-4.66-.41.61-7.17,10.41-17,11.09-8.14.57-13.18-3.75-19.16-10.38-12.81-14.16-16.59-37-17.84-46.57-1.23-9.39.22-30.1,10.83-32.74,1.81-.45,5.79-3.24,37.37,11.5,10,4.66,12.79,6.84,32.8,16.3,24.86,11.75,23.7,11,33.32,15.08s19.6,1.69,23.76-3.6c10.92-13.89-17.78-32.07-17.78-32.07s21,5.31,28.2,22.67C458.39,221.89,456.56,230.8,456.56,230.8Z" transform="translate(-43.2 -11.55)"/><path class="cls-4" d="M229.43,573.32V522.63h10.23v20h20.06v-20H270v50.69H259.72V551.16H239.66v22.16Z" transform="translate(-43.2 -11.55)"/><path class="cls-4" d="M375.2,573.32V523.05h10.24v41.73h25.44v8.54Z" transform="translate(-43.2 -11.55)"/><path class="cls-4" d="M354.44,558.46a18.18,18.18,0,0,1-12.32,4.63c-9.4,0-17-6.67-17-14.9s7.62-14.91,17-14.91a18,18,0,0,1,13.16,5.45h13.43c-4.27-9.19-14.56-15.68-26.59-15.68-15.85,0-28.7,11.25-28.7,25.14s12.85,25.13,28.7,25.13c11.67,0,21.7-6.11,26.18-14.86Z" transform="translate(-43.2 -11.55)"/><path class="cls-4" d="M276.77,573.32V522.63h34.75v8.58H287v12h21.16v8.57H287v21.54Z" transform="translate(-43.2 -11.55)"/><text class="cls-5" transform="translate(123.72 561.77)">b<tspan class="cls-6" x="25.68" y="0">y</tspan></text></svg>